<svg width="52" height="52" viewBox="0 0 52 52" fill="none" xmlns="http://www.w3.org/2000/svg">
<path d="M13.0013 41.1678H39.0013V19.8413L26.0013 8.0243L13.0013 19.8413V41.1678ZM41.168 45.5011H10.8346C10.26 45.5011 9.7089 45.2729 9.30257 44.8665C8.89624 44.4602 8.66797 43.9091 8.66797 43.3345V23.8345H2.16797L24.5431 3.4938C24.942 3.13083 25.462 2.92969 26.0013 2.92969C26.5406 2.92969 27.0606 3.13083 27.4595 3.4938L49.8346 23.8345H43.3346V43.3345C43.3346 43.9091 43.1064 44.4602 42.7 44.8665C42.2937 45.2729 41.7426 45.5011 41.168 45.5011ZM16.2513 28.1678H20.5846C20.5846 29.6044 21.1553 30.9821 22.1711 31.998C23.187 33.0138 24.5647 33.5845 26.0013 33.5845C27.4379 33.5845 28.8156 33.0138 29.8315 31.998C30.8473 30.9821 31.418 29.6044 31.418 28.1678H35.7513C35.7513 30.7537 34.7241 33.2336 32.8956 35.0621C31.0671 36.8906 28.5872 37.9178 26.0013 37.9178C23.4154 37.9178 20.9355 36.8906 19.107 35.0621C17.2785 33.2336 16.2513 30.7537 16.2513 28.1678V28.1678Z" fill="#2F2B43"/>
</svg>
