<svg width="52" height="52" viewBox="0 0 52 52" fill="none" xmlns="http://www.w3.org/2000/svg">
<path d="M47.6654 45.5H4.33203V41.1667H6.4987V8.66667C6.4987 8.09203 6.72697 7.54093 7.1333 7.1346C7.53963 6.72827 8.09073 6.5 8.66536 6.5H38.9987C39.5733 6.5 40.1244 6.72827 40.5308 7.1346C40.9371 7.54093 41.1654 8.09203 41.1654 8.66667V19.5H45.4987V41.1667H47.6654V45.5ZM36.832 41.1667H41.1654V23.8333H28.1654V41.1667H32.4987V28.1667H36.832V41.1667ZM36.832 19.5V10.8333H10.832V41.1667H23.832V19.5H36.832ZM15.1654 23.8333H19.4987V28.1667H15.1654V23.8333ZM15.1654 32.5H19.4987V36.8333H15.1654V32.5ZM15.1654 15.1667H19.4987V19.5H15.1654V15.1667Z" fill="#2F2B43"/>
</svg>
