<svg width="52" height="52" viewBox="0 0 52 52" fill="none" xmlns="http://www.w3.org/2000/svg">
<path d="M41.168 45.4992H10.8346C10.26 45.4992 9.7089 45.2709 9.30257 44.8646C8.89624 44.4582 8.66797 43.9071 8.66797 43.3325V23.8325H2.16797L24.5431 3.49184C24.942 3.12888 25.462 2.92773 26.0013 2.92773C26.5406 2.92773 27.0606 3.12888 27.4595 3.49184L49.8346 23.8325H43.3346V43.3325C43.3346 43.9071 43.1064 44.4582 42.7 44.8646C42.2937 45.2709 41.7426 45.4992 41.168 45.4992ZM13.0013 41.1658H39.0013V19.8393L26.0013 8.02234L13.0013 19.8393V41.1658ZM26.0013 32.4992C24.5647 32.4992 23.187 31.9285 22.1711 30.9127C21.1553 29.8968 20.5846 28.5191 20.5846 27.0825C20.5846 25.6459 21.1553 24.2682 22.1711 23.2523C23.187 22.2365 24.5647 21.6658 26.0013 21.6658C27.4379 21.6658 28.8156 22.2365 29.8315 23.2523C30.8473 24.2682 31.418 25.6459 31.418 27.0825C31.418 28.5191 30.8473 29.8968 29.8315 30.9127C28.8156 31.9285 27.4379 32.4992 26.0013 32.4992Z" fill="#2F2B43"/>
</svg>
