<svg width="52" height="52" viewBox="0 0 52 52" fill="none" xmlns="http://www.w3.org/2000/svg">
<path d="M41.168 45.5011H10.8346C10.26 45.5011 9.7089 45.2729 9.30257 44.8665C8.89624 44.4602 8.66797 43.9091 8.66797 43.3345V23.8345H2.16797L24.5431 3.4938C24.942 3.13083 25.462 2.92969 26.0013 2.92969C26.5406 2.92969 27.0606 3.13083 27.4595 3.4938L49.8346 23.8345H43.3346V43.3345C43.3346 43.9091 43.1064 44.4602 42.7 44.8665C42.2937 45.2729 41.7426 45.5011 41.168 45.5011ZM13.0013 41.1678H39.0013V19.8413L26.0013 8.0243L13.0013 19.8413V41.1678ZM18.6151 29.9206C18.3406 28.7653 18.3406 27.5617 18.6151 26.4063L16.468 25.167L18.6346 21.4143L20.7818 22.6558C21.6438 21.8389 22.6859 21.2363 23.8238 20.8965V18.4178H28.1571V20.8965C29.3098 21.241 30.3455 21.8498 31.1991 22.6558L33.3463 21.4143L35.513 25.1648L33.3658 26.4063C33.6403 27.5617 33.6403 28.7653 33.3658 29.9206L35.513 31.16L33.3463 34.9105L31.1991 33.6711C30.3369 34.4872 29.2949 35.0891 28.1571 35.4283V37.9091H23.8238V35.4261C22.6861 35.087 21.644 34.485 20.7818 33.669L18.6346 34.9083L16.468 31.16L18.6151 29.9185V29.9206ZM25.9905 31.4113C26.427 31.4272 26.8622 31.355 27.2702 31.199C27.6781 31.043 28.0504 30.8063 28.3649 30.5031C28.6793 30.2 28.9294 29.8365 29.1003 29.4345C29.2711 29.0326 29.3591 28.6002 29.3591 28.1635C29.3591 27.7267 29.2711 27.2944 29.1003 26.8924C28.9294 26.4904 28.6793 26.127 28.3649 25.8238C28.0504 25.5206 27.6781 25.284 27.2702 25.1279C26.8622 24.9719 26.427 24.8997 25.9905 24.9156C25.1496 24.9463 24.3535 25.302 23.7695 25.9077C23.1854 26.5134 22.8591 27.3221 22.8591 28.1635C22.8591 29.0049 23.1854 29.8135 23.7695 30.4192C24.3535 31.025 25.1496 31.3806 25.9905 31.4113Z" fill="#2F2B43"/>
</svg>
