<svg width="52" height="52" viewBox="0 0 52 52" fill="none" xmlns="http://www.w3.org/2000/svg">
<path d="M13.0013 41.1678H39.0013V19.8413L26.0013 8.0243L13.0013 19.8413V41.1678ZM41.168 45.5011H10.8346C10.26 45.5011 9.7089 45.2729 9.30257 44.8665C8.89624 44.4602 8.66797 43.9091 8.66797 43.3345V23.8345H2.16797L24.5431 3.4938C24.942 3.13083 25.462 2.92969 26.0013 2.92969C26.5406 2.92969 27.0606 3.13083 27.4595 3.4938L49.8346 23.8345H43.3346V43.3345C43.3346 43.9091 43.1064 44.4602 42.7 44.8665C42.2937 45.2729 41.7426 45.5011 41.168 45.5011ZM17.3346 21.6678C21.3571 21.6678 25.2148 23.2657 28.0591 26.11C30.9034 28.9543 32.5013 32.812 32.5013 36.8345H28.168C28.168 33.9613 27.0266 31.2058 24.995 29.1741C22.9633 27.1425 20.2078 26.0011 17.3346 26.0011V21.6678ZM17.3346 30.3345C19.0585 30.3345 20.7118 31.0193 21.9308 32.2383C23.1498 33.4573 23.8346 35.1106 23.8346 36.8345H17.3346V30.3345Z" fill="#2F2B43"/>
</svg>
